<?xml version="1.0" encoding="utf-8" standalone="no"?>
<!DOCTYPE svg PUBLIC "-//W3C//DTD SVG 1.1//EN"
  "http://www.w3.org/Graphics/SVG/1.1/DTD/svg11.dtd">
<!-- Created with matplotlib (https://matplotlib.org/) -->
<svg height="821.098125pt" version="1.1" viewBox="0 0 544.798437 821.098125" width="544.798437pt" xmlns="http://www.w3.org/2000/svg" xmlns:xlink="http://www.w3.org/1999/xlink">
 <metadata>
  <rdf:RDF xmlns:cc="http://creativecommons.org/ns#" xmlns:dc="http://purl.org/dc/elements/1.1/" xmlns:rdf="http://www.w3.org/1999/02/22-rdf-syntax-ns#">
   <cc:Work>
    <dc:type rdf:resource="http://purl.org/dc/dcmitype/StillImage"/>
    <dc:date>2020-12-25T14:17:58.975928</dc:date>
    <dc:format>image/svg+xml</dc:format>
    <dc:creator>
     <cc:Agent>
      <dc:title>Matplotlib v3.3.3, https://matplotlib.org/</dc:title>
     </cc:Agent>
    </dc:creator>
   </cc:Work>
  </rdf:RDF>
 </metadata>
 <defs>
  <style type="text/css">*{stroke-linecap:butt;stroke-linejoin:round;}</style>
 </defs>
 <g id="figure_1">
  <g id="patch_1">
   <path d="M 0 821.098125 
L 544.798437 821.098125 
L 544.798437 0 
L 0 0 
z
" style="fill:#ffffff;"/>
  </g>
  <g id="axes_1">
   <g id="patch_2">
    <path d="M 91.198438 797.22 
L 537.598438 797.22 
L 537.598438 7.2 
L 91.198438 7.2 
z
" style="fill:#ffffff;"/>
   </g>
   <g id="patch_3">
    <path clip-path="url(#p843119bd5b)" d="M 91.198438 797.22 
L 101.567775 797.22 
L 101.567775 786.092958 
L 91.198438 786.092958 
z
" style="fill:#1f77b4;"/>
   </g>
   <g id="patch_4">
    <path clip-path="url(#p843119bd5b)" d="M 91.198438 783.311197 
L 101.567775 783.311197 
L 101.567775 772.184155 
L 91.198438 772.184155 
z
" style="fill:#1f77b4;"/>
   </g>
   <g id="patch_5">
    <path clip-path="url(#p843119bd5b)" d="M 91.198438 769.402394 
L 101.567775 769.402394 
L 101.567775 758.275352 
L 91.198438 758.275352 
z
" style="fill:#1f77b4;"/>
   </g>
   <g id="patch_6">
    <path clip-path="url(#p843119bd5b)" d="M 91.198438 755.493592 
L 101.567775 755.493592 
L 101.567775 744.366549 
L 91.198438 744.366549 
z
" style="fill:#1f77b4;"/>
   </g>
   <g id="patch_7">
    <path clip-path="url(#p843119bd5b)" d="M 91.198438 741.584789 
L 101.567775 741.584789 
L 101.567775 730.457746 
L 91.198438 730.457746 
z
" style="fill:#1f77b4;"/>
   </g>
   <g id="patch_8">
    <path clip-path="url(#p843119bd5b)" d="M 91.198438 727.675986 
L 101.567775 727.675986 
L 101.567775 716.548944 
L 91.198438 716.548944 
z
" style="fill:#1f77b4;"/>
   </g>
   <g id="patch_9">
    <path clip-path="url(#p843119bd5b)" d="M 91.198438 713.767183 
L 101.567775 713.767183 
L 101.567775 702.640141 
L 91.198438 702.640141 
z
" style="fill:#1f77b4;"/>
   </g>
   <g id="patch_10">
    <path clip-path="url(#p843119bd5b)" d="M 91.198438 699.85838 
L 101.567775 699.85838 
L 101.567775 688.731338 
L 91.198438 688.731338 
z
" style="fill:#1f77b4;"/>
   </g>
   <g id="patch_11">
    <path clip-path="url(#p843119bd5b)" d="M 91.198438 685.949577 
L 101.567775 685.949577 
L 101.567775 674.822535 
L 91.198438 674.822535 
z
" style="fill:#1f77b4;"/>
   </g>
   <g id="patch_12">
    <path clip-path="url(#p843119bd5b)" d="M 91.198438 672.040775 
L 101.567775 672.040775 
L 101.567775 660.913732 
L 91.198438 660.913732 
z
" style="fill:#1f77b4;"/>
   </g>
   <g id="patch_13">
    <path clip-path="url(#p843119bd5b)" d="M 91.198438 658.131972 
L 101.567775 658.131972 
L 101.567775 647.00493 
L 91.198438 647.00493 
z
" style="fill:#1f77b4;"/>
   </g>
   <g id="patch_14">
    <path clip-path="url(#p843119bd5b)" d="M 91.198438 644.223169 
L 101.567775 644.223169 
L 101.567775 633.096127 
L 91.198438 633.096127 
z
" style="fill:#1f77b4;"/>
   </g>
   <g id="patch_15">
    <path clip-path="url(#p843119bd5b)" d="M 91.198438 630.314366 
L 101.567775 630.314366 
L 101.567775 619.187324 
L 91.198438 619.187324 
z
" style="fill:#1f77b4;"/>
   </g>
   <g id="patch_16">
    <path clip-path="url(#p843119bd5b)" d="M 91.198438 616.405563 
L 101.567775 616.405563 
L 101.567775 605.278521 
L 91.198438 605.278521 
z
" style="fill:#1f77b4;"/>
   </g>
   <g id="patch_17">
    <path clip-path="url(#p843119bd5b)" d="M 91.198438 602.496761 
L 101.567775 602.496761 
L 101.567775 591.369718 
L 91.198438 591.369718 
z
" style="fill:#1f77b4;"/>
   </g>
   <g id="patch_18">
    <path clip-path="url(#p843119bd5b)" d="M 91.198438 588.587958 
L 101.567775 588.587958 
L 101.567775 577.460915 
L 91.198438 577.460915 
z
" style="fill:#1f77b4;"/>
   </g>
   <g id="patch_19">
    <path clip-path="url(#p843119bd5b)" d="M 91.198438 574.679155 
L 101.567775 574.679155 
L 101.567775 563.552113 
L 91.198438 563.552113 
z
" style="fill:#1f77b4;"/>
   </g>
   <g id="patch_20">
    <path clip-path="url(#p843119bd5b)" d="M 91.198438 560.770352 
L 101.567775 560.770352 
L 101.567775 549.64331 
L 91.198438 549.64331 
z
" style="fill:#1f77b4;"/>
   </g>
   <g id="patch_21">
    <path clip-path="url(#p843119bd5b)" d="M 91.198438 546.861549 
L 101.567775 546.861549 
L 101.567775 535.734507 
L 91.198438 535.734507 
z
" style="fill:#1f77b4;"/>
   </g>
   <g id="patch_22">
    <path clip-path="url(#p843119bd5b)" d="M 91.198438 532.952746 
L 101.567775 532.952746 
L 101.567775 521.825704 
L 91.198438 521.825704 
z
" style="fill:#1f77b4;"/>
   </g>
   <g id="patch_23">
    <path clip-path="url(#p843119bd5b)" d="M 91.198438 519.043944 
L 101.567775 519.043944 
L 101.567775 507.916901 
L 91.198438 507.916901 
z
" style="fill:#1f77b4;"/>
   </g>
   <g id="patch_24">
    <path clip-path="url(#p843119bd5b)" d="M 91.198438 505.135141 
L 101.567775 505.135141 
L 101.567775 494.008099 
L 91.198438 494.008099 
z
" style="fill:#1f77b4;"/>
   </g>
   <g id="patch_25">
    <path clip-path="url(#p843119bd5b)" d="M 91.198438 491.226338 
L 101.567775 491.226338 
L 101.567775 480.099296 
L 91.198438 480.099296 
z
" style="fill:#1f77b4;"/>
   </g>
   <g id="patch_26">
    <path clip-path="url(#p843119bd5b)" d="M 91.198438 477.317535 
L 111.937113 477.317535 
L 111.937113 466.190493 
L 91.198438 466.190493 
z
" style="fill:#1f77b4;"/>
   </g>
   <g id="patch_27">
    <path clip-path="url(#p843119bd5b)" d="M 91.198438 463.408732 
L 111.937113 463.408732 
L 111.937113 452.28169 
L 91.198438 452.28169 
z
" style="fill:#1f77b4;"/>
   </g>
   <g id="patch_28">
    <path clip-path="url(#p843119bd5b)" d="M 91.198438 449.49993 
L 111.937113 449.49993 
L 111.937113 438.372887 
L 91.198438 438.372887 
z
" style="fill:#1f77b4;"/>
   </g>
   <g id="patch_29">
    <path clip-path="url(#p843119bd5b)" d="M 91.198438 435.591127 
L 111.937113 435.591127 
L 111.937113 424.464085 
L 91.198438 424.464085 
z
" style="fill:#1f77b4;"/>
   </g>
   <g id="patch_30">
    <path clip-path="url(#p843119bd5b)" d="M 91.198438 421.682324 
L 111.937113 421.682324 
L 111.937113 410.555282 
L 91.198438 410.555282 
z
" style="fill:#1f77b4;"/>
   </g>
   <g id="patch_31">
    <path clip-path="url(#p843119bd5b)" d="M 91.198438 407.773521 
L 111.937113 407.773521 
L 111.937113 396.646479 
L 91.198438 396.646479 
z
" style="fill:#1f77b4;"/>
   </g>
   <g id="patch_32">
    <path clip-path="url(#p843119bd5b)" d="M 91.198438 393.864718 
L 111.937113 393.864718 
L 111.937113 382.737676 
L 91.198438 382.737676 
z
" style="fill:#1f77b4;"/>
   </g>
   <g id="patch_33">
    <path clip-path="url(#p843119bd5b)" d="M 91.198438 379.955915 
L 111.937113 379.955915 
L 111.937113 368.828873 
L 91.198438 368.828873 
z
" style="fill:#1f77b4;"/>
   </g>
   <g id="patch_34">
    <path clip-path="url(#p843119bd5b)" d="M 91.198438 366.047113 
L 111.937113 366.047113 
L 111.937113 354.92007 
L 91.198438 354.92007 
z
" style="fill:#1f77b4;"/>
   </g>
   <g id="patch_35">
    <path clip-path="url(#p843119bd5b)" d="M 91.198438 352.13831 
L 111.937113 352.13831 
L 111.937113 341.011268 
L 91.198438 341.011268 
z
" style="fill:#1f77b4;"/>
   </g>
   <g id="patch_36">
    <path clip-path="url(#p843119bd5b)" d="M 91.198438 338.229507 
L 122.306451 338.229507 
L 122.306451 327.102465 
L 91.198438 327.102465 
z
" style="fill:#1f77b4;"/>
   </g>
   <g id="patch_37">
    <path clip-path="url(#p843119bd5b)" d="M 91.198438 324.320704 
L 122.306451 324.320704 
L 122.306451 313.193662 
L 91.198438 313.193662 
z
" style="fill:#1f77b4;"/>
   </g>
   <g id="patch_38">
    <path clip-path="url(#p843119bd5b)" d="M 91.198438 310.411901 
L 122.306451 310.411901 
L 122.306451 299.284859 
L 91.198438 299.284859 
z
" style="fill:#1f77b4;"/>
   </g>
   <g id="patch_39">
    <path clip-path="url(#p843119bd5b)" d="M 91.198438 296.503099 
L 122.306451 296.503099 
L 122.306451 285.376056 
L 91.198438 285.376056 
z
" style="fill:#1f77b4;"/>
   </g>
   <g id="patch_40">
    <path clip-path="url(#p843119bd5b)" d="M 91.198438 282.594296 
L 132.675789 282.594296 
L 132.675789 271.467254 
L 91.198438 271.467254 
z
" style="fill:#1f77b4;"/>
   </g>
   <g id="patch_41">
    <path clip-path="url(#p843119bd5b)" d="M 91.198438 268.685493 
L 132.675789 268.685493 
L 132.675789 257.558451 
L 91.198438 257.558451 
z
" style="fill:#1f77b4;"/>
   </g>
   <g id="patch_42">
    <path clip-path="url(#p843119bd5b)" d="M 91.198438 254.77669 
L 132.675789 254.77669 
L 132.675789 243.649648 
L 91.198438 243.649648 
z
" style="fill:#1f77b4;"/>
   </g>
   <g id="patch_43">
    <path clip-path="url(#p843119bd5b)" d="M 91.198438 240.867887 
L 132.675789 240.867887 
L 132.675789 229.740845 
L 91.198438 229.740845 
z
" style="fill:#1f77b4;"/>
   </g>
   <g id="patch_44">
    <path clip-path="url(#p843119bd5b)" d="M 91.198438 226.959085 
L 143.045127 226.959085 
L 143.045127 215.832042 
L 91.198438 215.832042 
z
" style="fill:#1f77b4;"/>
   </g>
   <g id="patch_45">
    <path clip-path="url(#p843119bd5b)" d="M 91.198438 213.050282 
L 143.045127 213.050282 
L 143.045127 201.923239 
L 91.198438 201.923239 
z
" style="fill:#1f77b4;"/>
   </g>
   <g id="patch_46">
    <path clip-path="url(#p843119bd5b)" d="M 91.198438 199.141479 
L 143.045127 199.141479 
L 143.045127 188.014437 
L 91.198438 188.014437 
z
" style="fill:#1f77b4;"/>
   </g>
   <g id="patch_47">
    <path clip-path="url(#p843119bd5b)" d="M 91.198438 185.232676 
L 143.045127 185.232676 
L 143.045127 174.105634 
L 91.198438 174.105634 
z
" style="fill:#1f77b4;"/>
   </g>
   <g id="patch_48">
    <path clip-path="url(#p843119bd5b)" d="M 91.198438 171.323873 
L 153.414465 171.323873 
L 153.414465 160.196831 
L 91.198438 160.196831 
z
" style="fill:#1f77b4;"/>
   </g>
   <g id="patch_49">
    <path clip-path="url(#p843119bd5b)" d="M 91.198438 157.41507 
L 163.783803 157.41507 
L 163.783803 146.288028 
L 91.198438 146.288028 
z
" style="fill:#1f77b4;"/>
   </g>
   <g id="patch_50">
    <path clip-path="url(#p843119bd5b)" d="M 91.198438 143.506268 
L 163.783803 143.506268 
L 163.783803 132.379225 
L 91.198438 132.379225 
z
" style="fill:#1f77b4;"/>
   </g>
   <g id="patch_51">
    <path clip-path="url(#p843119bd5b)" d="M 91.198438 129.597465 
L 174.153141 129.597465 
L 174.153141 118.470423 
L 91.198438 118.470423 
z
" style="fill:#1f77b4;"/>
   </g>
   <g id="patch_52">
    <path clip-path="url(#p843119bd5b)" d="M 91.198438 115.688662 
L 174.153141 115.688662 
L 174.153141 104.56162 
L 91.198438 104.56162 
z
" style="fill:#1f77b4;"/>
   </g>
   <g id="patch_53">
    <path clip-path="url(#p843119bd5b)" d="M 91.198438 101.779859 
L 184.522479 101.779859 
L 184.522479 90.652817 
L 91.198438 90.652817 
z
" style="fill:#1f77b4;"/>
   </g>
   <g id="patch_54">
    <path clip-path="url(#p843119bd5b)" d="M 91.198438 87.871056 
L 184.522479 87.871056 
L 184.522479 76.744014 
L 91.198438 76.744014 
z
" style="fill:#1f77b4;"/>
   </g>
   <g id="patch_55">
    <path clip-path="url(#p843119bd5b)" d="M 91.198438 73.962254 
L 236.369169 73.962254 
L 236.369169 62.835211 
L 91.198438 62.835211 
z
" style="fill:#1f77b4;"/>
   </g>
   <g id="patch_56">
    <path clip-path="url(#p843119bd5b)" d="M 91.198438 60.053451 
L 236.369169 60.053451 
L 236.369169 48.926408 
L 91.198438 48.926408 
z
" style="fill:#1f77b4;"/>
   </g>
   <g id="patch_57">
    <path clip-path="url(#p843119bd5b)" d="M 91.198438 46.144648 
L 236.369169 46.144648 
L 236.369169 35.017606 
L 91.198438 35.017606 
z
" style="fill:#1f77b4;"/>
   </g>
   <g id="patch_58">
    <path clip-path="url(#p843119bd5b)" d="M 91.198438 32.235845 
L 464.494605 32.235845 
L 464.494605 21.108803 
L 91.198438 21.108803 
z
" style="fill:#1f77b4;"/>
   </g>
   <g id="patch_59">
    <path clip-path="url(#p843119bd5b)" d="M 91.198438 18.327042 
L 516.341295 18.327042 
L 516.341295 7.2 
L 91.198438 7.2 
z
" style="fill:#1f77b4;"/>
   </g>
   <g id="matplotlib.axis_1">
    <g id="xtick_1">
     <g id="line2d_1">
      <defs>
       <path d="M 0 0 
L 0 3.5 
" id="md011dd427f" style="stroke:#000000;stroke-width:0.8;"/>
      </defs>
      <g>
       <use style="stroke:#000000;stroke-width:0.8;" x="91.198438" xlink:href="#md011dd427f" y="797.22"/>
      </g>
     </g>
     <g id="text_1">
      <!-- 0 -->
      <g transform="translate(88.017188 811.818437)scale(0.1 -0.1)">
       <defs>
        <path d="M 31.78125 66.40625 
Q 24.171875 66.40625 20.328125 58.90625 
Q 16.5 51.421875 16.5 36.375 
Q 16.5 21.390625 20.328125 13.890625 
Q 24.171875 6.390625 31.78125 6.390625 
Q 39.453125 6.390625 43.28125 13.890625 
Q 47.125 21.390625 47.125 36.375 
Q 47.125 51.421875 43.28125 58.90625 
Q 39.453125 66.40625 31.78125 66.40625 
z
M 31.78125 74.21875 
Q 44.046875 74.21875 50.515625 64.515625 
Q 56.984375 54.828125 56.984375 36.375 
Q 56.984375 17.96875 50.515625 8.265625 
Q 44.046875 -1.421875 31.78125 -1.421875 
Q 19.53125 -1.421875 13.0625 8.265625 
Q 6.59375 17.96875 6.59375 36.375 
Q 6.59375 54.828125 13.0625 64.515625 
Q 19.53125 74.21875 31.78125 74.21875 
z
" id="DejaVuSans-48"/>
       </defs>
       <use xlink:href="#DejaVuSans-48"/>
      </g>
     </g>
    </g>
    <g id="xtick_2">
     <g id="line2d_2">
      <g>
       <use style="stroke:#000000;stroke-width:0.8;" x="143.045127" xlink:href="#md011dd427f" y="797.22"/>
      </g>
     </g>
     <g id="text_2">
      <!-- 5 -->
      <g transform="translate(139.863877 811.818437)scale(0.1 -0.1)">
       <defs>
        <path d="M 10.796875 72.90625 
L 49.515625 72.90625 
L 49.515625 64.59375 
L 19.828125 64.59375 
L 19.828125 46.734375 
Q 21.96875 47.46875 24.109375 47.828125 
Q 26.265625 48.1875 28.421875 48.1875 
Q 40.625 48.1875 47.75 41.5 
Q 54.890625 34.8125 54.890625 23.390625 
Q 54.890625 11.625 47.5625 5.09375 
Q 40.234375 -1.421875 26.90625 -1.421875 
Q 22.3125 -1.421875 17.546875 -0.640625 
Q 12.796875 0.140625 7.71875 1.703125 
L 7.71875 11.625 
Q 12.109375 9.234375 16.796875 8.0625 
Q 21.484375 6.890625 26.703125 6.890625 
Q 35.15625 6.890625 40.078125 11.328125 
Q 45.015625 15.765625 45.015625 23.390625 
Q 45.015625 31 40.078125 35.4375 
Q 35.15625 39.890625 26.703125 39.890625 
Q 22.75 39.890625 18.8125 39.015625 
Q 14.890625 38.140625 10.796875 36.28125 
z
" id="DejaVuSans-53"/>
       </defs>
       <use xlink:href="#DejaVuSans-53"/>
      </g>
     </g>
    </g>
    <g id="xtick_3">
     <g id="line2d_3">
      <g>
       <use style="stroke:#000000;stroke-width:0.8;" x="194.891817" xlink:href="#md011dd427f" y="797.22"/>
      </g>
     </g>
     <g id="text_3">
      <!-- 10 -->
      <g transform="translate(188.529317 811.818437)scale(0.1 -0.1)">
       <defs>
        <path d="M 12.40625 8.296875 
L 28.515625 8.296875 
L 28.515625 63.921875 
L 10.984375 60.40625 
L 10.984375 69.390625 
L 28.421875 72.90625 
L 38.28125 72.90625 
L 38.28125 8.296875 
L 54.390625 8.296875 
L 54.390625 0 
L 12.40625 0 
z
" id="DejaVuSans-49"/>
       </defs>
       <use xlink:href="#DejaVuSans-49"/>
       <use x="63.623047" xlink:href="#DejaVuSans-48"/>
      </g>
     </g>
    </g>
    <g id="xtick_4">
     <g id="line2d_4">
      <g>
       <use style="stroke:#000000;stroke-width:0.8;" x="246.738507" xlink:href="#md011dd427f" y="797.22"/>
      </g>
     </g>
     <g id="text_4">
      <!-- 15 -->
      <g transform="translate(240.376007 811.818437)scale(0.1 -0.1)">
       <use xlink:href="#DejaVuSans-49"/>
       <use x="63.623047" xlink:href="#DejaVuSans-53"/>
      </g>
     </g>
    </g>
    <g id="xtick_5">
     <g id="line2d_5">
      <g>
       <use style="stroke:#000000;stroke-width:0.8;" x="298.585197" xlink:href="#md011dd427f" y="797.22"/>
      </g>
     </g>
     <g id="text_5">
      <!-- 20 -->
      <g transform="translate(292.222697 811.818437)scale(0.1 -0.1)">
       <defs>
        <path d="M 19.1875 8.296875 
L 53.609375 8.296875 
L 53.609375 0 
L 7.328125 0 
L 7.328125 8.296875 
Q 12.9375 14.109375 22.625 23.890625 
Q 32.328125 33.6875 34.8125 36.53125 
Q 39.546875 41.84375 41.421875 45.53125 
Q 43.3125 49.21875 43.3125 52.78125 
Q 43.3125 58.59375 39.234375 62.25 
Q 35.15625 65.921875 28.609375 65.921875 
Q 23.96875 65.921875 18.8125 64.3125 
Q 13.671875 62.703125 7.8125 59.421875 
L 7.8125 69.390625 
Q 13.765625 71.78125 18.9375 73 
Q 24.125 74.21875 28.421875 74.21875 
Q 39.75 74.21875 46.484375 68.546875 
Q 53.21875 62.890625 53.21875 53.421875 
Q 53.21875 48.921875 51.53125 44.890625 
Q 49.859375 40.875 45.40625 35.40625 
Q 44.1875 33.984375 37.640625 27.21875 
Q 31.109375 20.453125 19.1875 8.296875 
z
" id="DejaVuSans-50"/>
       </defs>
       <use xlink:href="#DejaVuSans-50"/>
       <use x="63.623047" xlink:href="#DejaVuSans-48"/>
      </g>
     </g>
    </g>
    <g id="xtick_6">
     <g id="line2d_6">
      <g>
       <use style="stroke:#000000;stroke-width:0.8;" x="350.431887" xlink:href="#md011dd427f" y="797.22"/>
      </g>
     </g>
     <g id="text_6">
      <!-- 25 -->
      <g transform="translate(344.069387 811.818437)scale(0.1 -0.1)">
       <use xlink:href="#DejaVuSans-50"/>
       <use x="63.623047" xlink:href="#DejaVuSans-53"/>
      </g>
     </g>
    </g>
    <g id="xtick_7">
     <g id="line2d_7">
      <g>
       <use style="stroke:#000000;stroke-width:0.8;" x="402.278577" xlink:href="#md011dd427f" y="797.22"/>
      </g>
     </g>
     <g id="text_7">
      <!-- 30 -->
      <g transform="translate(395.916077 811.818437)scale(0.1 -0.1)">
       <defs>
        <path d="M 40.578125 39.3125 
Q 47.65625 37.796875 51.625 33 
Q 55.609375 28.21875 55.609375 21.1875 
Q 55.609375 10.40625 48.1875 4.484375 
Q 40.765625 -1.421875 27.09375 -1.421875 
Q 22.515625 -1.421875 17.65625 -0.515625 
Q 12.796875 0.390625 7.625 2.203125 
L 7.625 11.71875 
Q 11.71875 9.328125 16.59375 8.109375 
Q 21.484375 6.890625 26.8125 6.890625 
Q 36.078125 6.890625 40.9375 10.546875 
Q 45.796875 14.203125 45.796875 21.1875 
Q 45.796875 27.640625 41.28125 31.265625 
Q 36.765625 34.90625 28.71875 34.90625 
L 20.21875 34.90625 
L 20.21875 43.015625 
L 29.109375 43.015625 
Q 36.375 43.015625 40.234375 45.921875 
Q 44.09375 48.828125 44.09375 54.296875 
Q 44.09375 59.90625 40.109375 62.90625 
Q 36.140625 65.921875 28.71875 65.921875 
Q 24.65625 65.921875 20.015625 65.03125 
Q 15.375 64.15625 9.8125 62.3125 
L 9.8125 71.09375 
Q 15.4375 72.65625 20.34375 73.4375 
Q 25.25 74.21875 29.59375 74.21875 
Q 40.828125 74.21875 47.359375 69.109375 
Q 53.90625 64.015625 53.90625 55.328125 
Q 53.90625 49.265625 50.4375 45.09375 
Q 46.96875 40.921875 40.578125 39.3125 
z
" id="DejaVuSans-51"/>
       </defs>
       <use xlink:href="#DejaVuSans-51"/>
       <use x="63.623047" xlink:href="#DejaVuSans-48"/>
      </g>
     </g>
    </g>
    <g id="xtick_8">
     <g id="line2d_8">
      <g>
       <use style="stroke:#000000;stroke-width:0.8;" x="454.125267" xlink:href="#md011dd427f" y="797.22"/>
      </g>
     </g>
     <g id="text_8">
      <!-- 35 -->
      <g transform="translate(447.762767 811.818437)scale(0.1 -0.1)">
       <use xlink:href="#DejaVuSans-51"/>
       <use x="63.623047" xlink:href="#DejaVuSans-53"/>
      </g>
     </g>
    </g>
    <g id="xtick_9">
     <g id="line2d_9">
      <g>
       <use style="stroke:#000000;stroke-width:0.8;" x="505.971957" xlink:href="#md011dd427f" y="797.22"/>
      </g>
     </g>
     <g id="text_9">
      <!-- 40 -->
      <g transform="translate(499.609457 811.818437)scale(0.1 -0.1)">
       <defs>
        <path d="M 37.796875 64.3125 
L 12.890625 25.390625 
L 37.796875 25.390625 
z
M 35.203125 72.90625 
L 47.609375 72.90625 
L 47.609375 25.390625 
L 58.015625 25.390625 
L 58.015625 17.1875 
L 47.609375 17.1875 
L 47.609375 0 
L 37.796875 0 
L 37.796875 17.1875 
L 4.890625 17.1875 
L 4.890625 26.703125 
z
" id="DejaVuSans-52"/>
       </defs>
       <use xlink:href="#DejaVuSans-52"/>
       <use x="63.623047" xlink:href="#DejaVuSans-48"/>
      </g>
     </g>
    </g>
   </g>
   <g id="matplotlib.axis_2">
    <g id="ytick_1">
     <g id="line2d_10">
      <defs>
       <path d="M 0 0 
L -3.5 0 
" id="m47137b46bc" style="stroke:#000000;stroke-width:0.8;"/>
      </defs>
      <g>
       <use style="stroke:#000000;stroke-width:0.8;" x="91.198438" xlink:href="#m47137b46bc" y="791.656479"/>
      </g>
     </g>
     <g id="text_10">
      <!-- AU_SA:1 -->
      <g transform="translate(42.10625 795.367416)scale(0.1 -0.1)">
       <defs>
        <path d="M 34.1875 63.1875 
L 20.796875 26.90625 
L 47.609375 26.90625 
z
M 28.609375 72.90625 
L 39.796875 72.90625 
L 67.578125 0 
L 57.328125 0 
L 50.6875 18.703125 
L 17.828125 18.703125 
L 11.1875 0 
L 0.78125 0 
z
" id="DejaVuSans-65"/>
        <path d="M 8.6875 72.90625 
L 18.609375 72.90625 
L 18.609375 28.609375 
Q 18.609375 16.890625 22.84375 11.734375 
Q 27.09375 6.59375 36.625 6.59375 
Q 46.09375 6.59375 50.34375 11.734375 
Q 54.59375 16.890625 54.59375 28.609375 
L 54.59375 72.90625 
L 64.5 72.90625 
L 64.5 27.390625 
Q 64.5 13.140625 57.4375 5.859375 
Q 50.390625 -1.421875 36.625 -1.421875 
Q 22.796875 -1.421875 15.734375 5.859375 
Q 8.6875 13.140625 8.6875 27.390625 
z
" id="DejaVuSans-85"/>
        <path d="M 50.984375 -16.609375 
L 50.984375 -23.578125 
L -0.984375 -23.578125 
L -0.984375 -16.609375 
z
" id="DejaVuSans-95"/>
        <path d="M 53.515625 70.515625 
L 53.515625 60.890625 
Q 47.90625 63.578125 42.921875 64.890625 
Q 37.9375 66.21875 33.296875 66.21875 
Q 25.25 66.21875 20.875 63.09375 
Q 16.5 59.96875 16.5 54.203125 
Q 16.5 49.359375 19.40625 46.890625 
Q 22.3125 44.4375 30.421875 42.921875 
L 36.375 41.703125 
Q 47.40625 39.59375 52.65625 34.296875 
Q 57.90625 29 57.90625 20.125 
Q 57.90625 9.515625 50.796875 4.046875 
Q 43.703125 -1.421875 29.984375 -1.421875 
Q 24.8125 -1.421875 18.96875 -0.25 
Q 13.140625 0.921875 6.890625 3.21875 
L 6.890625 13.375 
Q 12.890625 10.015625 18.65625 8.296875 
Q 24.421875 6.59375 29.984375 6.59375 
Q 38.421875 6.59375 43.015625 9.90625 
Q 47.609375 13.234375 47.609375 19.390625 
Q 47.609375 24.75 44.3125 27.78125 
Q 41.015625 30.8125 33.5 32.328125 
L 27.484375 33.5 
Q 16.453125 35.6875 11.515625 40.375 
Q 6.59375 45.0625 6.59375 53.421875 
Q 6.59375 63.09375 13.40625 68.65625 
Q 20.21875 74.21875 32.171875 74.21875 
Q 37.3125 74.21875 42.625 73.28125 
Q 47.953125 72.359375 53.515625 70.515625 
z
" id="DejaVuSans-83"/>
        <path d="M 11.71875 12.40625 
L 22.015625 12.40625 
L 22.015625 0 
L 11.71875 0 
z
M 11.71875 51.703125 
L 22.015625 51.703125 
L 22.015625 39.3125 
L 11.71875 39.3125 
z
" id="DejaVuSans-58"/>
       </defs>
       <use xlink:href="#DejaVuSans-65"/>
       <use x="68.408203" xlink:href="#DejaVuSans-85"/>
       <use x="141.601562" xlink:href="#DejaVuSans-95"/>
       <use x="191.601562" xlink:href="#DejaVuSans-83"/>
       <use x="256.953125" xlink:href="#DejaVuSans-65"/>
       <use x="323.611328" xlink:href="#DejaVuSans-58"/>
       <use x="357.302734" xlink:href="#DejaVuSans-49"/>
      </g>
     </g>
    </g>
    <g id="ytick_2">
     <g id="line2d_11">
      <g>
       <use style="stroke:#000000;stroke-width:0.8;" x="91.198438" xlink:href="#m47137b46bc" y="777.747676"/>
      </g>
     </g>
     <g id="text_11">
      <!-- AU_VIC:1 -->
      <g transform="translate(38.534375 781.458614)scale(0.1 -0.1)">
       <defs>
        <path d="M 28.609375 0 
L 0.78125 72.90625 
L 11.078125 72.90625 
L 34.1875 11.53125 
L 57.328125 72.90625 
L 67.578125 72.90625 
L 39.796875 0 
z
" id="DejaVuSans-86"/>
        <path d="M 9.8125 72.90625 
L 19.671875 72.90625 
L 19.671875 0 
L 9.8125 0 
z
" id="DejaVuSans-73"/>
        <path d="M 64.40625 67.28125 
L 64.40625 56.890625 
Q 59.421875 61.53125 53.78125 63.8125 
Q 48.140625 66.109375 41.796875 66.109375 
Q 29.296875 66.109375 22.65625 58.46875 
Q 16.015625 50.828125 16.015625 36.375 
Q 16.015625 21.96875 22.65625 14.328125 
Q 29.296875 6.6875 41.796875 6.6875 
Q 48.140625 6.6875 53.78125 8.984375 
Q 59.421875 11.28125 64.40625 15.921875 
L 64.40625 5.609375 
Q 59.234375 2.09375 53.4375 0.328125 
Q 47.65625 -1.421875 41.21875 -1.421875 
Q 24.65625 -1.421875 15.125 8.703125 
Q 5.609375 18.84375 5.609375 36.375 
Q 5.609375 53.953125 15.125 64.078125 
Q 24.65625 74.21875 41.21875 74.21875 
Q 47.75 74.21875 53.53125 72.484375 
Q 59.328125 70.75 64.40625 67.28125 
z
" id="DejaVuSans-67"/>
       </defs>
       <use xlink:href="#DejaVuSans-65"/>
       <use x="68.408203" xlink:href="#DejaVuSans-85"/>
       <use x="141.601562" xlink:href="#DejaVuSans-95"/>
       <use x="191.601562" xlink:href="#DejaVuSans-86"/>
       <use x="260.009766" xlink:href="#DejaVuSans-73"/>
       <use x="289.501953" xlink:href="#DejaVuSans-67"/>
       <use x="359.326172" xlink:href="#DejaVuSans-58"/>
       <use x="393.017578" xlink:href="#DejaVuSans-49"/>
      </g>
     </g>
    </g>
    <g id="ytick_3">
     <g id="line2d_12">
      <g>
       <use style="stroke:#000000;stroke-width:0.8;" x="91.198438" xlink:href="#m47137b46bc" y="763.838873"/>
      </g>
     </g>
     <g id="text_12">
      <!-- DE_NI:1 -->
      <g transform="translate(45.017188 767.499029)scale(0.1 -0.1)">
       <defs>
        <path d="M 19.671875 64.796875 
L 19.671875 8.109375 
L 31.59375 8.109375 
Q 46.6875 8.109375 53.6875 14.9375 
Q 60.6875 21.78125 60.6875 36.53125 
Q 60.6875 51.171875 53.6875 57.984375 
Q 46.6875 64.796875 31.59375 64.796875 
z
M 9.8125 72.90625 
L 30.078125 72.90625 
Q 51.265625 72.90625 61.171875 64.09375 
Q 71.09375 55.28125 71.09375 36.53125 
Q 71.09375 17.671875 61.125 8.828125 
Q 51.171875 0 30.078125 0 
L 9.8125 0 
z
" id="DejaVuSans-68"/>
        <path d="M 9.8125 72.90625 
L 55.90625 72.90625 
L 55.90625 64.59375 
L 19.671875 64.59375 
L 19.671875 43.015625 
L 54.390625 43.015625 
L 54.390625 34.71875 
L 19.671875 34.71875 
L 19.671875 8.296875 
L 56.78125 8.296875 
L 56.78125 0 
L 9.8125 0 
z
" id="DejaVuSans-69"/>
        <path d="M 9.8125 72.90625 
L 23.09375 72.90625 
L 55.421875 11.921875 
L 55.421875 72.90625 
L 64.984375 72.90625 
L 64.984375 0 
L 51.703125 0 
L 19.390625 60.984375 
L 19.390625 0 
L 9.8125 0 
z
" id="DejaVuSans-78"/>
       </defs>
       <use xlink:href="#DejaVuSans-68"/>
       <use x="77.001953" xlink:href="#DejaVuSans-69"/>
       <use x="140.185547" xlink:href="#DejaVuSans-95"/>
       <use x="190.185547" xlink:href="#DejaVuSans-78"/>
       <use x="264.990234" xlink:href="#DejaVuSans-73"/>
       <use x="294.482422" xlink:href="#DejaVuSans-58"/>
       <use x="328.173828" xlink:href="#DejaVuSans-49"/>
      </g>
     </g>
    </g>
    <g id="ytick_4">
     <g id="line2d_13">
      <g>
       <use style="stroke:#000000;stroke-width:0.8;" x="91.198438" xlink:href="#m47137b46bc" y="749.93007"/>
      </g>
     </g>
     <g id="text_13">
      <!-- ES_B_CT:1 -->
      <g transform="translate(32.948438 753.641008)scale(0.1 -0.1)">
       <defs>
        <path d="M 19.671875 34.8125 
L 19.671875 8.109375 
L 35.5 8.109375 
Q 43.453125 8.109375 47.28125 11.40625 
Q 51.125 14.703125 51.125 21.484375 
Q 51.125 28.328125 47.28125 31.5625 
Q 43.453125 34.8125 35.5 34.8125 
z
M 19.671875 64.796875 
L 19.671875 42.828125 
L 34.28125 42.828125 
Q 41.5 42.828125 45.03125 45.53125 
Q 48.578125 48.25 48.578125 53.8125 
Q 48.578125 59.328125 45.03125 62.0625 
Q 41.5 64.796875 34.28125 64.796875 
z
M 9.8125 72.90625 
L 35.015625 72.90625 
Q 46.296875 72.90625 52.390625 68.21875 
Q 58.5 63.53125 58.5 54.890625 
Q 58.5 48.1875 55.375 44.234375 
Q 52.25 40.28125 46.1875 39.3125 
Q 53.46875 37.75 57.5 32.78125 
Q 61.53125 27.828125 61.53125 20.40625 
Q 61.53125 10.640625 54.890625 5.3125 
Q 48.25 0 35.984375 0 
L 9.8125 0 
z
" id="DejaVuSans-66"/>
        <path d="M -0.296875 72.90625 
L 61.375 72.90625 
L 61.375 64.59375 
L 35.5 64.59375 
L 35.5 0 
L 25.59375 0 
L 25.59375 64.59375 
L -0.296875 64.59375 
z
" id="DejaVuSans-84"/>
       </defs>
       <use xlink:href="#DejaVuSans-69"/>
       <use x="63.183594" xlink:href="#DejaVuSans-83"/>
       <use x="126.660156" xlink:href="#DejaVuSans-95"/>
       <use x="176.660156" xlink:href="#DejaVuSans-66"/>
       <use x="245.263672" xlink:href="#DejaVuSans-95"/>
       <use x="295.263672" xlink:href="#DejaVuSans-67"/>
       <use x="365.087891" xlink:href="#DejaVuSans-84"/>
       <use x="415.171875" xlink:href="#DejaVuSans-58"/>
       <use x="448.863281" xlink:href="#DejaVuSans-49"/>
      </g>
     </g>
    </g>
    <g id="ytick_5">
     <g id="line2d_14">
      <g>
       <use style="stroke:#000000;stroke-width:0.8;" x="91.198438" xlink:href="#m47137b46bc" y="736.021268"/>
      </g>
     </g>
     <g id="text_14">
      <!-- GB:1 -->
      <g transform="translate(59.857813 739.820486)scale(0.1 -0.1)">
       <defs>
        <path d="M 59.515625 10.40625 
L 59.515625 29.984375 
L 43.40625 29.984375 
L 43.40625 38.09375 
L 69.28125 38.09375 
L 69.28125 6.78125 
Q 63.578125 2.734375 56.6875 0.65625 
Q 49.8125 -1.421875 42 -1.421875 
Q 24.90625 -1.421875 15.25 8.5625 
Q 5.609375 18.5625 5.609375 36.375 
Q 5.609375 54.25 15.25 64.234375 
Q 24.90625 74.21875 42 74.21875 
Q 49.125 74.21875 55.546875 72.453125 
Q 61.96875 70.703125 67.390625 67.28125 
L 67.390625 56.78125 
Q 61.921875 61.421875 55.765625 63.765625 
Q 49.609375 66.109375 42.828125 66.109375 
Q 29.4375 66.109375 22.71875 58.640625 
Q 16.015625 51.171875 16.015625 36.375 
Q 16.015625 21.625 22.71875 14.15625 
Q 29.4375 6.6875 42.828125 6.6875 
Q 48.046875 6.6875 52.140625 7.59375 
Q 56.25 8.5 59.515625 10.40625 
z
" id="DejaVuSans-71"/>
       </defs>
       <use xlink:href="#DejaVuSans-71"/>
       <use x="77.490234" xlink:href="#DejaVuSans-66"/>
       <use x="146.09375" xlink:href="#DejaVuSans-58"/>
       <use x="179.785156" xlink:href="#DejaVuSans-49"/>
      </g>
     </g>
    </g>
    <g id="ytick_6">
     <g id="line2d_15">
      <g>
       <use style="stroke:#000000;stroke-width:0.8;" x="91.198438" xlink:href="#m47137b46bc" y="722.112465"/>
      </g>
     </g>
     <g id="text_15">
      <!-- GB_ENG_LEC:1 -->
      <g transform="translate(9.435938 725.823402)scale(0.1 -0.1)">
       <defs>
        <path d="M 9.8125 72.90625 
L 19.671875 72.90625 
L 19.671875 8.296875 
L 55.171875 8.296875 
L 55.171875 0 
L 9.8125 0 
z
" id="DejaVuSans-76"/>
       </defs>
       <use xlink:href="#DejaVuSans-71"/>
       <use x="77.490234" xlink:href="#DejaVuSans-66"/>
       <use x="146.09375" xlink:href="#DejaVuSans-95"/>
       <use x="196.09375" xlink:href="#DejaVuSans-69"/>
       <use x="259.277344" xlink:href="#DejaVuSans-78"/>
       <use x="334.082031" xlink:href="#DejaVuSans-71"/>
       <use x="411.572266" xlink:href="#DejaVuSans-95"/>
       <use x="461.572266" xlink:href="#DejaVuSans-76"/>
       <use x="517.285156" xlink:href="#DejaVuSans-69"/>
       <use x="580.46875" xlink:href="#DejaVuSans-67"/>
       <use x="650.292969" xlink:href="#DejaVuSans-58"/>
       <use x="683.984375" xlink:href="#DejaVuSans-49"/>
      </g>
     </g>
    </g>
    <g id="ytick_7">
     <g id="line2d_16">
      <g>
       <use style="stroke:#000000;stroke-width:0.8;" x="91.198438" xlink:href="#m47137b46bc" y="708.203662"/>
      </g>
     </g>
     <g id="text_16">
      <!-- GB_ENG_NTH:1 -->
      <g transform="translate(7.2 711.914599)scale(0.1 -0.1)">
       <defs>
        <path d="M 9.8125 72.90625 
L 19.671875 72.90625 
L 19.671875 43.015625 
L 55.515625 43.015625 
L 55.515625 72.90625 
L 65.375 72.90625 
L 65.375 0 
L 55.515625 0 
L 55.515625 34.71875 
L 19.671875 34.71875 
L 19.671875 0 
L 9.8125 0 
z
" id="DejaVuSans-72"/>
       </defs>
       <use xlink:href="#DejaVuSans-71"/>
       <use x="77.490234" xlink:href="#DejaVuSans-66"/>
       <use x="146.09375" xlink:href="#DejaVuSans-95"/>
       <use x="196.09375" xlink:href="#DejaVuSans-69"/>
       <use x="259.277344" xlink:href="#DejaVuSans-78"/>
       <use x="334.082031" xlink:href="#DejaVuSans-71"/>
       <use x="411.572266" xlink:href="#DejaVuSans-95"/>
       <use x="461.572266" xlink:href="#DejaVuSans-78"/>
       <use x="536.376953" xlink:href="#DejaVuSans-84"/>
       <use x="597.460938" xlink:href="#DejaVuSans-72"/>
       <use x="672.65625" xlink:href="#DejaVuSans-58"/>
       <use x="706.347656" xlink:href="#DejaVuSans-49"/>
      </g>
     </g>
    </g>
    <g id="ytick_8">
     <g id="line2d_17">
      <g>
       <use style="stroke:#000000;stroke-width:0.8;" x="91.198438" xlink:href="#m47137b46bc" y="694.294859"/>
      </g>
     </g>
     <g id="text_17">
      <!-- IL:1 -->
      <g transform="translate(65.945313 698.094078)scale(0.1 -0.1)">
       <use xlink:href="#DejaVuSans-73"/>
       <use x="29.492188" xlink:href="#DejaVuSans-76"/>
       <use x="85.205078" xlink:href="#DejaVuSans-58"/>
       <use x="118.896484" xlink:href="#DejaVuSans-49"/>
      </g>
     </g>
    </g>
    <g id="ytick_9">
     <g id="line2d_18">
      <g>
       <use style="stroke:#000000;stroke-width:0.8;" x="91.198438" xlink:href="#m47137b46bc" y="680.386056"/>
      </g>
     </g>
     <g id="text_18">
      <!-- KR_11:1 -->
      <g transform="translate(43.235938 684.046213)scale(0.1 -0.1)">
       <defs>
        <path d="M 9.8125 72.90625 
L 19.671875 72.90625 
L 19.671875 42.09375 
L 52.390625 72.90625 
L 65.09375 72.90625 
L 28.90625 38.921875 
L 67.671875 0 
L 54.6875 0 
L 19.671875 35.109375 
L 19.671875 0 
L 9.8125 0 
z
" id="DejaVuSans-75"/>
        <path d="M 44.390625 34.1875 
Q 47.5625 33.109375 50.5625 29.59375 
Q 53.5625 26.078125 56.59375 19.921875 
L 66.609375 0 
L 56 0 
L 46.6875 18.703125 
Q 43.0625 26.03125 39.671875 28.421875 
Q 36.28125 30.8125 30.421875 30.8125 
L 19.671875 30.8125 
L 19.671875 0 
L 9.8125 0 
L 9.8125 72.90625 
L 32.078125 72.90625 
Q 44.578125 72.90625 50.734375 67.671875 
Q 56.890625 62.453125 56.890625 51.90625 
Q 56.890625 45.015625 53.6875 40.46875 
Q 50.484375 35.9375 44.390625 34.1875 
z
M 19.671875 64.796875 
L 19.671875 38.921875 
L 32.078125 38.921875 
Q 39.203125 38.921875 42.84375 42.21875 
Q 46.484375 45.515625 46.484375 51.90625 
Q 46.484375 58.296875 42.84375 61.546875 
Q 39.203125 64.796875 32.078125 64.796875 
z
" id="DejaVuSans-82"/>
       </defs>
       <use xlink:href="#DejaVuSans-75"/>
       <use x="65.576172" xlink:href="#DejaVuSans-82"/>
       <use x="135.058594" xlink:href="#DejaVuSans-95"/>
       <use x="185.058594" xlink:href="#DejaVuSans-49"/>
       <use x="248.681641" xlink:href="#DejaVuSans-49"/>
       <use x="312.304688" xlink:href="#DejaVuSans-58"/>
       <use x="345.996094" xlink:href="#DejaVuSans-49"/>
      </g>
     </g>
    </g>
    <g id="ytick_10">
     <g id="line2d_19">
      <g>
       <use style="stroke:#000000;stroke-width:0.8;" x="91.198438" xlink:href="#m47137b46bc" y="666.477254"/>
      </g>
     </g>
     <g id="text_19">
      <!-- KR_48:1 -->
      <g transform="translate(43.235938 670.188191)scale(0.1 -0.1)">
       <defs>
        <path d="M 31.78125 34.625 
Q 24.75 34.625 20.71875 30.859375 
Q 16.703125 27.09375 16.703125 20.515625 
Q 16.703125 13.921875 20.71875 10.15625 
Q 24.75 6.390625 31.78125 6.390625 
Q 38.8125 6.390625 42.859375 10.171875 
Q 46.921875 13.96875 46.921875 20.515625 
Q 46.921875 27.09375 42.890625 30.859375 
Q 38.875 34.625 31.78125 34.625 
z
M 21.921875 38.8125 
Q 15.578125 40.375 12.03125 44.71875 
Q 8.5 49.078125 8.5 55.328125 
Q 8.5 64.0625 14.71875 69.140625 
Q 20.953125 74.21875 31.78125 74.21875 
Q 42.671875 74.21875 48.875 69.140625 
Q 55.078125 64.0625 55.078125 55.328125 
Q 55.078125 49.078125 51.53125 44.71875 
Q 48 40.375 41.703125 38.8125 
Q 48.828125 37.15625 52.796875 32.3125 
Q 56.78125 27.484375 56.78125 20.515625 
Q 56.78125 9.90625 50.3125 4.234375 
Q 43.84375 -1.421875 31.78125 -1.421875 
Q 19.734375 -1.421875 13.25 4.234375 
Q 6.78125 9.90625 6.78125 20.515625 
Q 6.78125 27.484375 10.78125 32.3125 
Q 14.796875 37.15625 21.921875 38.8125 
z
M 18.3125 54.390625 
Q 18.3125 48.734375 21.84375 45.5625 
Q 25.390625 42.390625 31.78125 42.390625 
Q 38.140625 42.390625 41.71875 45.5625 
Q 45.3125 48.734375 45.3125 54.390625 
Q 45.3125 60.0625 41.71875 63.234375 
Q 38.140625 66.40625 31.78125 66.40625 
Q 25.390625 66.40625 21.84375 63.234375 
Q 18.3125 60.0625 18.3125 54.390625 
z
" id="DejaVuSans-56"/>
       </defs>
       <use xlink:href="#DejaVuSans-75"/>
       <use x="65.576172" xlink:href="#DejaVuSans-82"/>
       <use x="135.058594" xlink:href="#DejaVuSans-95"/>
       <use x="185.058594" xlink:href="#DejaVuSans-52"/>
       <use x="248.681641" xlink:href="#DejaVuSans-56"/>
       <use x="312.304688" xlink:href="#DejaVuSans-58"/>
       <use x="345.996094" xlink:href="#DejaVuSans-49"/>
      </g>
     </g>
    </g>
    <g id="ytick_11">
     <g id="line2d_20">
      <g>
       <use style="stroke:#000000;stroke-width:0.8;" x="91.198438" xlink:href="#m47137b46bc" y="652.568451"/>
      </g>
     </g>
     <g id="text_20">
      <!-- PH:1 -->
      <g transform="translate(60.917188 656.367669)scale(0.1 -0.1)">
       <defs>
        <path d="M 19.671875 64.796875 
L 19.671875 37.40625 
L 32.078125 37.40625 
Q 38.96875 37.40625 42.71875 40.96875 
Q 46.484375 44.53125 46.484375 51.125 
Q 46.484375 57.671875 42.71875 61.234375 
Q 38.96875 64.796875 32.078125 64.796875 
z
M 9.8125 72.90625 
L 32.078125 72.90625 
Q 44.34375 72.90625 50.609375 67.359375 
Q 56.890625 61.8125 56.890625 51.125 
Q 56.890625 40.328125 50.609375 34.8125 
Q 44.34375 29.296875 32.078125 29.296875 
L 19.671875 29.296875 
L 19.671875 0 
L 9.8125 0 
z
" id="DejaVuSans-80"/>
       </defs>
       <use xlink:href="#DejaVuSans-80"/>
       <use x="60.302734" xlink:href="#DejaVuSans-72"/>
       <use x="135.498047" xlink:href="#DejaVuSans-58"/>
       <use x="169.189453" xlink:href="#DejaVuSans-49"/>
      </g>
     </g>
    </g>
    <g id="ytick_12">
     <g id="line2d_21">
      <g>
       <use style="stroke:#000000;stroke-width:0.8;" x="91.198438" xlink:href="#m47137b46bc" y="638.659648"/>
      </g>
     </g>
     <g id="text_21">
      <!-- PT:1 -->
      <g transform="translate(63.429688 642.458867)scale(0.1 -0.1)">
       <use xlink:href="#DejaVuSans-80"/>
       <use x="60.302734" xlink:href="#DejaVuSans-84"/>
       <use x="110.386719" xlink:href="#DejaVuSans-58"/>
       <use x="144.078125" xlink:href="#DejaVuSans-49"/>
      </g>
     </g>
    </g>
    <g id="ytick_13">
     <g id="line2d_22">
      <g>
       <use style="stroke:#000000;stroke-width:0.8;" x="91.198438" xlink:href="#m47137b46bc" y="624.750845"/>
      </g>
     </g>
     <g id="text_22">
      <!-- SA_01:1 -->
      <g transform="translate(43.365625 628.461783)scale(0.1 -0.1)">
       <use xlink:href="#DejaVuSans-83"/>
       <use x="65.351562" xlink:href="#DejaVuSans-65"/>
       <use x="133.759766" xlink:href="#DejaVuSans-95"/>
       <use x="183.759766" xlink:href="#DejaVuSans-48"/>
       <use x="247.382812" xlink:href="#DejaVuSans-49"/>
       <use x="311.005859" xlink:href="#DejaVuSans-58"/>
       <use x="344.697266" xlink:href="#DejaVuSans-49"/>
      </g>
     </g>
    </g>
    <g id="ytick_14">
     <g id="line2d_23">
      <g>
       <use style="stroke:#000000;stroke-width:0.8;" x="91.198438" xlink:href="#m47137b46bc" y="610.842042"/>
      </g>
     </g>
     <g id="text_23">
      <!-- TW:1 -->
      <g transform="translate(59.059375 614.641261)scale(0.1 -0.1)">
       <defs>
        <path d="M 3.328125 72.90625 
L 13.28125 72.90625 
L 28.609375 11.28125 
L 43.890625 72.90625 
L 54.984375 72.90625 
L 70.3125 11.28125 
L 85.59375 72.90625 
L 95.609375 72.90625 
L 77.296875 0 
L 64.890625 0 
L 49.515625 63.28125 
L 33.984375 0 
L 21.578125 0 
z
" id="DejaVuSans-87"/>
       </defs>
       <use xlink:href="#DejaVuSans-84"/>
       <use x="61.083984" xlink:href="#DejaVuSans-87"/>
       <use x="154.085938" xlink:href="#DejaVuSans-58"/>
       <use x="187.777344" xlink:href="#DejaVuSans-49"/>
      </g>
     </g>
    </g>
    <g id="ytick_15">
     <g id="line2d_24">
      <g>
       <use style="stroke:#000000;stroke-width:0.8;" x="91.198438" xlink:href="#m47137b46bc" y="596.933239"/>
      </g>
     </g>
     <g id="text_24">
      <!-- US_AR:1 -->
      <g transform="translate(42.323438 600.644177)scale(0.1 -0.1)">
       <use xlink:href="#DejaVuSans-85"/>
       <use x="73.193359" xlink:href="#DejaVuSans-83"/>
       <use x="136.669922" xlink:href="#DejaVuSans-95"/>
       <use x="186.669922" xlink:href="#DejaVuSans-65"/>
       <use x="255.078125" xlink:href="#DejaVuSans-82"/>
       <use x="321.435547" xlink:href="#DejaVuSans-58"/>
       <use x="355.126953" xlink:href="#DejaVuSans-49"/>
      </g>
     </g>
    </g>
    <g id="ytick_16">
     <g id="line2d_25">
      <g>
       <use style="stroke:#000000;stroke-width:0.8;" x="91.198438" xlink:href="#m47137b46bc" y="583.024437"/>
      </g>
     </g>
     <g id="text_25">
      <!-- US_AZ:1 -->
      <g transform="translate(42.109375 586.735374)scale(0.1 -0.1)">
       <defs>
        <path d="M 5.609375 72.90625 
L 62.890625 72.90625 
L 62.890625 65.375 
L 16.796875 8.296875 
L 64.015625 8.296875 
L 64.015625 0 
L 4.5 0 
L 4.5 7.515625 
L 50.59375 64.59375 
L 5.609375 64.59375 
z
" id="DejaVuSans-90"/>
       </defs>
       <use xlink:href="#DejaVuSans-85"/>
       <use x="73.193359" xlink:href="#DejaVuSans-83"/>
       <use x="136.669922" xlink:href="#DejaVuSans-95"/>
       <use x="186.669922" xlink:href="#DejaVuSans-65"/>
       <use x="255.078125" xlink:href="#DejaVuSans-90"/>
       <use x="323.583984" xlink:href="#DejaVuSans-58"/>
       <use x="357.275391" xlink:href="#DejaVuSans-49"/>
      </g>
     </g>
    </g>
    <g id="ytick_17">
     <g id="line2d_26">
      <g>
       <use style="stroke:#000000;stroke-width:0.8;" x="91.198438" xlink:href="#m47137b46bc" y="569.115634"/>
      </g>
     </g>
     <g id="text_26">
      <!-- US_MA:1 -->
      <g transform="translate(40.50625 572.826571)scale(0.1 -0.1)">
       <defs>
        <path d="M 9.8125 72.90625 
L 24.515625 72.90625 
L 43.109375 23.296875 
L 61.8125 72.90625 
L 76.515625 72.90625 
L 76.515625 0 
L 66.890625 0 
L 66.890625 64.015625 
L 48.09375 14.015625 
L 38.1875 14.015625 
L 19.390625 64.015625 
L 19.390625 0 
L 9.8125 0 
z
" id="DejaVuSans-77"/>
       </defs>
       <use xlink:href="#DejaVuSans-85"/>
       <use x="73.193359" xlink:href="#DejaVuSans-83"/>
       <use x="136.669922" xlink:href="#DejaVuSans-95"/>
       <use x="186.669922" xlink:href="#DejaVuSans-77"/>
       <use x="272.949219" xlink:href="#DejaVuSans-65"/>
       <use x="339.607422" xlink:href="#DejaVuSans-58"/>
       <use x="373.298828" xlink:href="#DejaVuSans-49"/>
      </g>
     </g>
    </g>
    <g id="ytick_18">
     <g id="line2d_27">
      <g>
       <use style="stroke:#000000;stroke-width:0.8;" x="91.198438" xlink:href="#m47137b46bc" y="555.206831"/>
      </g>
     </g>
     <g id="text_27">
      <!-- US_MN:1 -->
      <g transform="translate(39.690625 558.917768)scale(0.1 -0.1)">
       <use xlink:href="#DejaVuSans-85"/>
       <use x="73.193359" xlink:href="#DejaVuSans-83"/>
       <use x="136.669922" xlink:href="#DejaVuSans-95"/>
       <use x="186.669922" xlink:href="#DejaVuSans-77"/>
       <use x="272.949219" xlink:href="#DejaVuSans-78"/>
       <use x="347.753906" xlink:href="#DejaVuSans-58"/>
       <use x="381.445312" xlink:href="#DejaVuSans-49"/>
      </g>
     </g>
    </g>
    <g id="ytick_19">
     <g id="line2d_28">
      <g>
       <use style="stroke:#000000;stroke-width:0.8;" x="91.198438" xlink:href="#m47137b46bc" y="541.298028"/>
      </g>
     </g>
     <g id="text_28">
      <!-- US_NJ:1 -->
      <g transform="translate(45.36875 545.008966)scale(0.1 -0.1)">
       <defs>
        <path d="M 9.8125 72.90625 
L 19.671875 72.90625 
L 19.671875 5.078125 
Q 19.671875 -8.109375 14.671875 -14.0625 
Q 9.671875 -20.015625 -1.421875 -20.015625 
L -5.171875 -20.015625 
L -5.171875 -11.71875 
L -2.09375 -11.71875 
Q 4.4375 -11.71875 7.125 -8.046875 
Q 9.8125 -4.390625 9.8125 5.078125 
z
" id="DejaVuSans-74"/>
       </defs>
       <use xlink:href="#DejaVuSans-85"/>
       <use x="73.193359" xlink:href="#DejaVuSans-83"/>
       <use x="136.669922" xlink:href="#DejaVuSans-95"/>
       <use x="186.669922" xlink:href="#DejaVuSans-78"/>
       <use x="261.474609" xlink:href="#DejaVuSans-74"/>
       <use x="290.966797" xlink:href="#DejaVuSans-58"/>
       <use x="324.658203" xlink:href="#DejaVuSans-49"/>
      </g>
     </g>
    </g>
    <g id="ytick_20">
     <g id="line2d_29">
      <g>
       <use style="stroke:#000000;stroke-width:0.8;" x="91.198438" xlink:href="#m47137b46bc" y="527.389225"/>
      </g>
     </g>
     <g id="text_29">
      <!-- US_NM:1 -->
      <g transform="translate(39.690625 531.100163)scale(0.1 -0.1)">
       <use xlink:href="#DejaVuSans-85"/>
       <use x="73.193359" xlink:href="#DejaVuSans-83"/>
       <use x="136.669922" xlink:href="#DejaVuSans-95"/>
       <use x="186.669922" xlink:href="#DejaVuSans-78"/>
       <use x="261.474609" xlink:href="#DejaVuSans-77"/>
       <use x="347.753906" xlink:href="#DejaVuSans-58"/>
       <use x="381.445312" xlink:href="#DejaVuSans-49"/>
      </g>
     </g>
    </g>
    <g id="ytick_21">
     <g id="line2d_30">
      <g>
       <use style="stroke:#000000;stroke-width:0.8;" x="91.198438" xlink:href="#m47137b46bc" y="513.480423"/>
      </g>
     </g>
     <g id="text_30">
      <!-- US_OH:1 -->
      <g transform="translate(40.407813 517.19136)scale(0.1 -0.1)">
       <defs>
        <path d="M 39.40625 66.21875 
Q 28.65625 66.21875 22.328125 58.203125 
Q 16.015625 50.203125 16.015625 36.375 
Q 16.015625 22.609375 22.328125 14.59375 
Q 28.65625 6.59375 39.40625 6.59375 
Q 50.140625 6.59375 56.421875 14.59375 
Q 62.703125 22.609375 62.703125 36.375 
Q 62.703125 50.203125 56.421875 58.203125 
Q 50.140625 66.21875 39.40625 66.21875 
z
M 39.40625 74.21875 
Q 54.734375 74.21875 63.90625 63.9375 
Q 73.09375 53.65625 73.09375 36.375 
Q 73.09375 19.140625 63.90625 8.859375 
Q 54.734375 -1.421875 39.40625 -1.421875 
Q 24.03125 -1.421875 14.8125 8.828125 
Q 5.609375 19.09375 5.609375 36.375 
Q 5.609375 53.65625 14.8125 63.9375 
Q 24.03125 74.21875 39.40625 74.21875 
z
" id="DejaVuSans-79"/>
       </defs>
       <use xlink:href="#DejaVuSans-85"/>
       <use x="73.193359" xlink:href="#DejaVuSans-83"/>
       <use x="136.669922" xlink:href="#DejaVuSans-95"/>
       <use x="186.669922" xlink:href="#DejaVuSans-79"/>
       <use x="265.380859" xlink:href="#DejaVuSans-72"/>
       <use x="340.576172" xlink:href="#DejaVuSans-58"/>
       <use x="374.267578" xlink:href="#DejaVuSans-49"/>
      </g>
     </g>
    </g>
    <g id="ytick_22">
     <g id="line2d_31">
      <g>
       <use style="stroke:#000000;stroke-width:0.8;" x="91.198438" xlink:href="#m47137b46bc" y="499.57162"/>
      </g>
     </g>
     <g id="text_31">
      <!-- US_TN:1 -->
      <g transform="translate(42.210938 503.282557)scale(0.1 -0.1)">
       <use xlink:href="#DejaVuSans-85"/>
       <use x="73.193359" xlink:href="#DejaVuSans-83"/>
       <use x="136.669922" xlink:href="#DejaVuSans-95"/>
       <use x="186.669922" xlink:href="#DejaVuSans-84"/>
       <use x="247.753906" xlink:href="#DejaVuSans-78"/>
       <use x="322.558594" xlink:href="#DejaVuSans-58"/>
       <use x="356.25" xlink:href="#DejaVuSans-49"/>
      </g>
     </g>
    </g>
    <g id="ytick_23">
     <g id="line2d_32">
      <g>
       <use style="stroke:#000000;stroke-width:0.8;" x="91.198438" xlink:href="#m47137b46bc" y="485.662817"/>
      </g>
     </g>
     <g id="text_32">
      <!-- US_TX:1 -->
      <g transform="translate(42.842188 489.373754)scale(0.1 -0.1)">
       <defs>
        <path d="M 6.296875 72.90625 
L 16.890625 72.90625 
L 35.015625 45.796875 
L 53.21875 72.90625 
L 63.8125 72.90625 
L 40.375 37.890625 
L 65.375 0 
L 54.78125 0 
L 34.28125 31 
L 13.625 0 
L 2.984375 0 
L 29 38.921875 
z
" id="DejaVuSans-88"/>
       </defs>
       <use xlink:href="#DejaVuSans-85"/>
       <use x="73.193359" xlink:href="#DejaVuSans-83"/>
       <use x="136.669922" xlink:href="#DejaVuSans-95"/>
       <use x="186.669922" xlink:href="#DejaVuSans-84"/>
       <use x="247.753906" xlink:href="#DejaVuSans-88"/>
       <use x="316.259766" xlink:href="#DejaVuSans-58"/>
       <use x="349.951172" xlink:href="#DejaVuSans-49"/>
      </g>
     </g>
    </g>
    <g id="ytick_24">
     <g id="line2d_33">
      <g>
       <use style="stroke:#000000;stroke-width:0.8;" x="91.198438" xlink:href="#m47137b46bc" y="471.754014"/>
      </g>
     </g>
     <g id="text_33">
      <!-- AU:2 -->
      <g transform="translate(60.307813 475.553233)scale(0.1 -0.1)">
       <use xlink:href="#DejaVuSans-65"/>
       <use x="68.408203" xlink:href="#DejaVuSans-85"/>
       <use x="141.601562" xlink:href="#DejaVuSans-58"/>
       <use x="175.292969" xlink:href="#DejaVuSans-50"/>
      </g>
     </g>
    </g>
    <g id="ytick_25">
     <g id="line2d_34">
      <g>
       <use style="stroke:#000000;stroke-width:0.8;" x="91.198438" xlink:href="#m47137b46bc" y="457.845211"/>
      </g>
     </g>
     <g id="text_34">
      <!-- CA_AB:2 -->
      <g transform="translate(41.942188 461.556149)scale(0.1 -0.1)">
       <use xlink:href="#DejaVuSans-67"/>
       <use x="69.824219" xlink:href="#DejaVuSans-65"/>
       <use x="138.232422" xlink:href="#DejaVuSans-95"/>
       <use x="188.232422" xlink:href="#DejaVuSans-65"/>
       <use x="256.640625" xlink:href="#DejaVuSans-66"/>
       <use x="325.244141" xlink:href="#DejaVuSans-58"/>
       <use x="358.935547" xlink:href="#DejaVuSans-50"/>
      </g>
     </g>
    </g>
    <g id="ytick_26">
     <g id="line2d_35">
      <g>
       <use style="stroke:#000000;stroke-width:0.8;" x="91.198438" xlink:href="#m47137b46bc" y="443.936408"/>
      </g>
     </g>
     <g id="text_35">
      <!-- FI:2 -->
      <g transform="translate(65.765625 447.735627)scale(0.1 -0.1)">
       <defs>
        <path d="M 9.8125 72.90625 
L 51.703125 72.90625 
L 51.703125 64.59375 
L 19.671875 64.59375 
L 19.671875 43.109375 
L 48.578125 43.109375 
L 48.578125 34.8125 
L 19.671875 34.8125 
L 19.671875 0 
L 9.8125 0 
z
" id="DejaVuSans-70"/>
       </defs>
       <use xlink:href="#DejaVuSans-70"/>
       <use x="57.519531" xlink:href="#DejaVuSans-73"/>
       <use x="87.011719" xlink:href="#DejaVuSans-58"/>
       <use x="120.703125" xlink:href="#DejaVuSans-50"/>
      </g>
     </g>
    </g>
    <g id="ytick_27">
     <g id="line2d_36">
      <g>
       <use style="stroke:#000000;stroke-width:0.8;" x="91.198438" xlink:href="#m47137b46bc" y="430.027606"/>
      </g>
     </g>
     <g id="text_36">
      <!-- HK:2 -->
      <g transform="translate(60.389063 433.826824)scale(0.1 -0.1)">
       <use xlink:href="#DejaVuSans-72"/>
       <use x="75.195312" xlink:href="#DejaVuSans-75"/>
       <use x="140.771484" xlink:href="#DejaVuSans-58"/>
       <use x="174.462891" xlink:href="#DejaVuSans-50"/>
      </g>
     </g>
    </g>
    <g id="ytick_28">
     <g id="line2d_37">
      <g>
       <use style="stroke:#000000;stroke-width:0.8;" x="91.198438" xlink:href="#m47137b46bc" y="416.118803"/>
      </g>
     </g>
     <g id="text_37">
      <!-- JP_13:2 -->
      <g transform="translate(47.7625 419.82974)scale(0.1 -0.1)">
       <use xlink:href="#DejaVuSans-74"/>
       <use x="29.492188" xlink:href="#DejaVuSans-80"/>
       <use x="89.794922" xlink:href="#DejaVuSans-95"/>
       <use x="139.794922" xlink:href="#DejaVuSans-49"/>
       <use x="203.417969" xlink:href="#DejaVuSans-51"/>
       <use x="267.041016" xlink:href="#DejaVuSans-58"/>
       <use x="300.732422" xlink:href="#DejaVuSans-50"/>
      </g>
     </g>
    </g>
    <g id="ytick_29">
     <g id="line2d_38">
      <g>
       <use style="stroke:#000000;stroke-width:0.8;" x="91.198438" xlink:href="#m47137b46bc" y="402.21"/>
      </g>
     </g>
     <g id="text_38">
      <!-- NZ_MWT:2 -->
      <g transform="translate(31.6125 405.920937)scale(0.1 -0.1)">
       <use xlink:href="#DejaVuSans-78"/>
       <use x="74.804688" xlink:href="#DejaVuSans-90"/>
       <use x="143.310547" xlink:href="#DejaVuSans-95"/>
       <use x="193.310547" xlink:href="#DejaVuSans-77"/>
       <use x="279.589844" xlink:href="#DejaVuSans-87"/>
       <use x="378.466797" xlink:href="#DejaVuSans-84"/>
       <use x="428.550781" xlink:href="#DejaVuSans-58"/>
       <use x="462.242188" xlink:href="#DejaVuSans-50"/>
      </g>
     </g>
    </g>
    <g id="ytick_30">
     <g id="line2d_39">
      <g>
       <use style="stroke:#000000;stroke-width:0.8;" x="91.198438" xlink:href="#m47137b46bc" y="388.301197"/>
      </g>
     </g>
     <g id="text_39">
      <!-- US_FL:2 -->
      <g transform="translate(44.476563 392.012135)scale(0.1 -0.1)">
       <use xlink:href="#DejaVuSans-85"/>
       <use x="73.193359" xlink:href="#DejaVuSans-83"/>
       <use x="136.669922" xlink:href="#DejaVuSans-95"/>
       <use x="186.669922" xlink:href="#DejaVuSans-70"/>
       <use x="244.189453" xlink:href="#DejaVuSans-76"/>
       <use x="299.902344" xlink:href="#DejaVuSans-58"/>
       <use x="333.59375" xlink:href="#DejaVuSans-50"/>
      </g>
     </g>
    </g>
    <g id="ytick_31">
     <g id="line2d_40">
      <g>
       <use style="stroke:#000000;stroke-width:0.8;" x="91.198438" xlink:href="#m47137b46bc" y="374.392394"/>
      </g>
     </g>
     <g id="text_40">
      <!-- US_IL:2 -->
      <g transform="translate(47.278125 378.103332)scale(0.1 -0.1)">
       <use xlink:href="#DejaVuSans-85"/>
       <use x="73.193359" xlink:href="#DejaVuSans-83"/>
       <use x="136.669922" xlink:href="#DejaVuSans-95"/>
       <use x="186.669922" xlink:href="#DejaVuSans-73"/>
       <use x="216.162109" xlink:href="#DejaVuSans-76"/>
       <use x="271.875" xlink:href="#DejaVuSans-58"/>
       <use x="305.566406" xlink:href="#DejaVuSans-50"/>
      </g>
     </g>
    </g>
    <g id="ytick_32">
     <g id="line2d_41">
      <g>
       <use style="stroke:#000000;stroke-width:0.8;" x="91.198438" xlink:href="#m47137b46bc" y="360.483592"/>
      </g>
     </g>
     <g id="text_41">
      <!-- US_MI:2 -->
      <g transform="translate(44.221875 364.194529)scale(0.1 -0.1)">
       <use xlink:href="#DejaVuSans-85"/>
       <use x="73.193359" xlink:href="#DejaVuSans-83"/>
       <use x="136.669922" xlink:href="#DejaVuSans-95"/>
       <use x="186.669922" xlink:href="#DejaVuSans-77"/>
       <use x="272.949219" xlink:href="#DejaVuSans-73"/>
       <use x="302.441406" xlink:href="#DejaVuSans-58"/>
       <use x="336.132812" xlink:href="#DejaVuSans-50"/>
      </g>
     </g>
    </g>
    <g id="ytick_33">
     <g id="line2d_42">
      <g>
       <use style="stroke:#000000;stroke-width:0.8;" x="91.198438" xlink:href="#m47137b46bc" y="346.574789"/>
      </g>
     </g>
     <g id="text_42">
      <!-- US_PA:2 -->
      <g transform="translate(43.742188 350.285726)scale(0.1 -0.1)">
       <use xlink:href="#DejaVuSans-85"/>
       <use x="73.193359" xlink:href="#DejaVuSans-83"/>
       <use x="136.669922" xlink:href="#DejaVuSans-95"/>
       <use x="186.669922" xlink:href="#DejaVuSans-80"/>
       <use x="240.597656" xlink:href="#DejaVuSans-65"/>
       <use x="307.255859" xlink:href="#DejaVuSans-58"/>
       <use x="340.947266" xlink:href="#DejaVuSans-50"/>
      </g>
     </g>
    </g>
    <g id="ytick_34">
     <g id="line2d_43">
      <g>
       <use style="stroke:#000000;stroke-width:0.8;" x="91.198438" xlink:href="#m47137b46bc" y="332.665986"/>
      </g>
     </g>
     <g id="text_43">
      <!-- CN:3 -->
      <g transform="translate(60.003125 336.465205)scale(0.1 -0.1)">
       <use xlink:href="#DejaVuSans-67"/>
       <use x="69.824219" xlink:href="#DejaVuSans-78"/>
       <use x="144.628906" xlink:href="#DejaVuSans-58"/>
       <use x="178.320312" xlink:href="#DejaVuSans-51"/>
      </g>
     </g>
    </g>
    <g id="ytick_35">
     <g id="line2d_44">
      <g>
       <use style="stroke:#000000;stroke-width:0.8;" x="91.198438" xlink:href="#m47137b46bc" y="318.757183"/>
      </g>
     </g>
     <g id="text_44">
      <!-- FR:3 -->
      <g transform="translate(62.079688 322.556402)scale(0.1 -0.1)">
       <use xlink:href="#DejaVuSans-70"/>
       <use x="57.519531" xlink:href="#DejaVuSans-82"/>
       <use x="123.876953" xlink:href="#DejaVuSans-58"/>
       <use x="157.568359" xlink:href="#DejaVuSans-51"/>
      </g>
     </g>
    </g>
    <g id="ytick_36">
     <g id="line2d_45">
      <g>
       <use style="stroke:#000000;stroke-width:0.8;" x="91.198438" xlink:href="#m47137b46bc" y="304.84838"/>
      </g>
     </g>
     <g id="text_45">
      <!-- KR:3 -->
      <g transform="translate(61.273438 308.647599)scale(0.1 -0.1)">
       <use xlink:href="#DejaVuSans-75"/>
       <use x="65.576172" xlink:href="#DejaVuSans-82"/>
       <use x="131.933594" xlink:href="#DejaVuSans-58"/>
       <use x="165.625" xlink:href="#DejaVuSans-51"/>
      </g>
     </g>
    </g>
    <g id="ytick_37">
     <g id="line2d_46">
      <g>
       <use style="stroke:#000000;stroke-width:0.8;" x="91.198438" xlink:href="#m47137b46bc" y="290.939577"/>
      </g>
     </g>
     <g id="text_46">
      <!-- US_UT:3 -->
      <g transform="translate(43.473438 294.650515)scale(0.1 -0.1)">
       <use xlink:href="#DejaVuSans-85"/>
       <use x="73.193359" xlink:href="#DejaVuSans-83"/>
       <use x="136.669922" xlink:href="#DejaVuSans-95"/>
       <use x="186.669922" xlink:href="#DejaVuSans-85"/>
       <use x="259.863281" xlink:href="#DejaVuSans-84"/>
       <use x="309.947266" xlink:href="#DejaVuSans-58"/>
       <use x="343.638672" xlink:href="#DejaVuSans-51"/>
      </g>
     </g>
    </g>
    <g id="ytick_38">
     <g id="line2d_47">
      <g>
       <use style="stroke:#000000;stroke-width:0.8;" x="91.198438" xlink:href="#m47137b46bc" y="277.030775"/>
      </g>
     </g>
     <g id="text_47">
      <!-- AU_NSW:4 -->
      <g transform="translate(32.178125 280.741712)scale(0.1 -0.1)">
       <use xlink:href="#DejaVuSans-65"/>
       <use x="68.408203" xlink:href="#DejaVuSans-85"/>
       <use x="141.601562" xlink:href="#DejaVuSans-95"/>
       <use x="191.601562" xlink:href="#DejaVuSans-78"/>
       <use x="266.40625" xlink:href="#DejaVuSans-83"/>
       <use x="329.882812" xlink:href="#DejaVuSans-87"/>
       <use x="422.884766" xlink:href="#DejaVuSans-58"/>
       <use x="456.576172" xlink:href="#DejaVuSans-52"/>
      </g>
     </g>
    </g>
    <g id="ytick_39">
     <g id="line2d_48">
      <g>
       <use style="stroke:#000000;stroke-width:0.8;" x="91.198438" xlink:href="#m47137b46bc" y="263.121972"/>
      </g>
     </g>
     <g id="text_48">
      <!-- MX_PUE:4 -->
      <g transform="translate(34.321875 266.782128)scale(0.1 -0.1)">
       <use xlink:href="#DejaVuSans-77"/>
       <use x="86.279297" xlink:href="#DejaVuSans-88"/>
       <use x="154.785156" xlink:href="#DejaVuSans-95"/>
       <use x="204.785156" xlink:href="#DejaVuSans-80"/>
       <use x="265.087891" xlink:href="#DejaVuSans-85"/>
       <use x="338.28125" xlink:href="#DejaVuSans-69"/>
       <use x="401.464844" xlink:href="#DejaVuSans-58"/>
       <use x="435.15625" xlink:href="#DejaVuSans-52"/>
      </g>
     </g>
    </g>
    <g id="ytick_40">
     <g id="line2d_49">
      <g>
       <use style="stroke:#000000;stroke-width:0.8;" x="91.198438" xlink:href="#m47137b46bc" y="249.213169"/>
      </g>
     </g>
     <g id="text_49">
      <!-- PH_00:4 -->
      <g transform="translate(43.192188 252.924107)scale(0.1 -0.1)">
       <use xlink:href="#DejaVuSans-80"/>
       <use x="60.302734" xlink:href="#DejaVuSans-72"/>
       <use x="135.498047" xlink:href="#DejaVuSans-95"/>
       <use x="185.498047" xlink:href="#DejaVuSans-48"/>
       <use x="249.121094" xlink:href="#DejaVuSans-48"/>
       <use x="312.744141" xlink:href="#DejaVuSans-58"/>
       <use x="346.435547" xlink:href="#DejaVuSans-52"/>
      </g>
     </g>
    </g>
    <g id="ytick_41">
     <g id="line2d_50">
      <g>
       <use style="stroke:#000000;stroke-width:0.8;" x="91.198438" xlink:href="#m47137b46bc" y="235.304366"/>
      </g>
     </g>
     <g id="text_50">
      <!-- US_MS:4 -->
      <g transform="translate(40.823438 239.015304)scale(0.1 -0.1)">
       <use xlink:href="#DejaVuSans-85"/>
       <use x="73.193359" xlink:href="#DejaVuSans-83"/>
       <use x="136.669922" xlink:href="#DejaVuSans-95"/>
       <use x="186.669922" xlink:href="#DejaVuSans-77"/>
       <use x="272.949219" xlink:href="#DejaVuSans-83"/>
       <use x="336.425781" xlink:href="#DejaVuSans-58"/>
       <use x="370.117188" xlink:href="#DejaVuSans-52"/>
      </g>
     </g>
    </g>
    <g id="ytick_42">
     <g id="line2d_51">
      <g>
       <use style="stroke:#000000;stroke-width:0.8;" x="91.198438" xlink:href="#m47137b46bc" y="221.395563"/>
      </g>
     </g>
     <g id="text_51">
      <!-- US_KS:5 -->
      <g transform="translate(42.89375 225.106501)scale(0.1 -0.1)">
       <use xlink:href="#DejaVuSans-85"/>
       <use x="73.193359" xlink:href="#DejaVuSans-83"/>
       <use x="136.669922" xlink:href="#DejaVuSans-95"/>
       <use x="186.669922" xlink:href="#DejaVuSans-75"/>
       <use x="252.246094" xlink:href="#DejaVuSans-83"/>
       <use x="315.722656" xlink:href="#DejaVuSans-58"/>
       <use x="349.414062" xlink:href="#DejaVuSans-53"/>
      </g>
     </g>
    </g>
    <g id="ytick_43">
     <g id="line2d_52">
      <g>
       <use style="stroke:#000000;stroke-width:0.8;" x="91.198438" xlink:href="#m47137b46bc" y="207.486761"/>
      </g>
     </g>
     <g id="text_52">
      <!-- US_KY:5 -->
      <g transform="translate(44.821875 211.197698)scale(0.1 -0.1)">
       <defs>
        <path d="M -0.203125 72.90625 
L 10.40625 72.90625 
L 30.609375 42.921875 
L 50.6875 72.90625 
L 61.28125 72.90625 
L 35.5 34.71875 
L 35.5 0 
L 25.59375 0 
L 25.59375 34.71875 
z
" id="DejaVuSans-89"/>
       </defs>
       <use xlink:href="#DejaVuSans-85"/>
       <use x="73.193359" xlink:href="#DejaVuSans-83"/>
       <use x="136.669922" xlink:href="#DejaVuSans-95"/>
       <use x="186.669922" xlink:href="#DejaVuSans-75"/>
       <use x="248.621094" xlink:href="#DejaVuSans-89"/>
       <use x="296.455078" xlink:href="#DejaVuSans-58"/>
       <use x="330.146484" xlink:href="#DejaVuSans-53"/>
      </g>
     </g>
    </g>
    <g id="ytick_44">
     <g id="line2d_53">
      <g>
       <use style="stroke:#000000;stroke-width:0.8;" x="91.198438" xlink:href="#m47137b46bc" y="193.577958"/>
      </g>
     </g>
     <g id="text_53">
      <!-- US_OR:5 -->
      <g transform="translate(41.292188 197.288895)scale(0.1 -0.1)">
       <use xlink:href="#DejaVuSans-85"/>
       <use x="73.193359" xlink:href="#DejaVuSans-83"/>
       <use x="136.669922" xlink:href="#DejaVuSans-95"/>
       <use x="186.669922" xlink:href="#DejaVuSans-79"/>
       <use x="265.380859" xlink:href="#DejaVuSans-82"/>
       <use x="331.738281" xlink:href="#DejaVuSans-58"/>
       <use x="365.429688" xlink:href="#DejaVuSans-53"/>
      </g>
     </g>
    </g>
    <g id="ytick_45">
     <g id="line2d_54">
      <g>
       <use style="stroke:#000000;stroke-width:0.8;" x="91.198438" xlink:href="#m47137b46bc" y="179.669155"/>
      </g>
     </g>
     <g id="text_54">
      <!-- US_WA:5 -->
      <g transform="translate(39.796875 183.380092)scale(0.1 -0.1)">
       <use xlink:href="#DejaVuSans-85"/>
       <use x="73.193359" xlink:href="#DejaVuSans-83"/>
       <use x="136.669922" xlink:href="#DejaVuSans-95"/>
       <use x="186.669922" xlink:href="#DejaVuSans-87"/>
       <use x="280.046875" xlink:href="#DejaVuSans-65"/>
       <use x="346.705078" xlink:href="#DejaVuSans-58"/>
       <use x="380.396484" xlink:href="#DejaVuSans-53"/>
      </g>
     </g>
    </g>
    <g id="ytick_46">
     <g id="line2d_55">
      <g>
       <use style="stroke:#000000;stroke-width:0.8;" x="91.198438" xlink:href="#m47137b46bc" y="165.760352"/>
      </g>
     </g>
     <g id="text_55">
      <!-- US_SC:6 -->
      <g transform="translate(42.46875 169.47129)scale(0.1 -0.1)">
       <defs>
        <path d="M 33.015625 40.375 
Q 26.375 40.375 22.484375 35.828125 
Q 18.609375 31.296875 18.609375 23.390625 
Q 18.609375 15.53125 22.484375 10.953125 
Q 26.375 6.390625 33.015625 6.390625 
Q 39.65625 6.390625 43.53125 10.953125 
Q 47.40625 15.53125 47.40625 23.390625 
Q 47.40625 31.296875 43.53125 35.828125 
Q 39.65625 40.375 33.015625 40.375 
z
M 52.59375 71.296875 
L 52.59375 62.3125 
Q 48.875 64.0625 45.09375 64.984375 
Q 41.3125 65.921875 37.59375 65.921875 
Q 27.828125 65.921875 22.671875 59.328125 
Q 17.53125 52.734375 16.796875 39.40625 
Q 19.671875 43.65625 24.015625 45.921875 
Q 28.375 48.1875 33.59375 48.1875 
Q 44.578125 48.1875 50.953125 41.515625 
Q 57.328125 34.859375 57.328125 23.390625 
Q 57.328125 12.15625 50.6875 5.359375 
Q 44.046875 -1.421875 33.015625 -1.421875 
Q 20.359375 -1.421875 13.671875 8.265625 
Q 6.984375 17.96875 6.984375 36.375 
Q 6.984375 53.65625 15.1875 63.9375 
Q 23.390625 74.21875 37.203125 74.21875 
Q 40.921875 74.21875 44.703125 73.484375 
Q 48.484375 72.75 52.59375 71.296875 
z
" id="DejaVuSans-54"/>
       </defs>
       <use xlink:href="#DejaVuSans-85"/>
       <use x="73.193359" xlink:href="#DejaVuSans-83"/>
       <use x="136.669922" xlink:href="#DejaVuSans-95"/>
       <use x="186.669922" xlink:href="#DejaVuSans-83"/>
       <use x="250.146484" xlink:href="#DejaVuSans-67"/>
       <use x="319.970703" xlink:href="#DejaVuSans-58"/>
       <use x="353.662109" xlink:href="#DejaVuSans-54"/>
      </g>
     </g>
    </g>
    <g id="ytick_47">
     <g id="line2d_56">
      <g>
       <use style="stroke:#000000;stroke-width:0.8;" x="91.198438" xlink:href="#m47137b46bc" y="151.851549"/>
      </g>
     </g>
     <g id="text_56">
      <!-- CA_BC:7 -->
      <g transform="translate(41.975 155.562487)scale(0.1 -0.1)">
       <defs>
        <path d="M 8.203125 72.90625 
L 55.078125 72.90625 
L 55.078125 68.703125 
L 28.609375 0 
L 18.3125 0 
L 43.21875 64.59375 
L 8.203125 64.59375 
z
" id="DejaVuSans-55"/>
       </defs>
       <use xlink:href="#DejaVuSans-67"/>
       <use x="69.824219" xlink:href="#DejaVuSans-65"/>
       <use x="138.232422" xlink:href="#DejaVuSans-95"/>
       <use x="188.232422" xlink:href="#DejaVuSans-66"/>
       <use x="255.085938" xlink:href="#DejaVuSans-67"/>
       <use x="324.910156" xlink:href="#DejaVuSans-58"/>
       <use x="358.601562" xlink:href="#DejaVuSans-55"/>
      </g>
     </g>
    </g>
    <g id="ytick_48">
     <g id="line2d_57">
      <g>
       <use style="stroke:#000000;stroke-width:0.8;" x="91.198438" xlink:href="#m47137b46bc" y="137.942746"/>
      </g>
     </g>
     <g id="text_57">
      <!-- US_NY:7 -->
      <g transform="translate(43.535938 141.653684)scale(0.1 -0.1)">
       <use xlink:href="#DejaVuSans-85"/>
       <use x="73.193359" xlink:href="#DejaVuSans-83"/>
       <use x="136.669922" xlink:href="#DejaVuSans-95"/>
       <use x="186.669922" xlink:href="#DejaVuSans-78"/>
       <use x="261.474609" xlink:href="#DejaVuSans-89"/>
       <use x="309.308594" xlink:href="#DejaVuSans-58"/>
       <use x="343" xlink:href="#DejaVuSans-55"/>
      </g>
     </g>
    </g>
    <g id="ytick_49">
     <g id="line2d_58">
      <g>
       <use style="stroke:#000000;stroke-width:0.8;" x="91.198438" xlink:href="#m47137b46bc" y="124.033944"/>
      </g>
     </g>
     <g id="text_58">
      <!-- CA_ON:8 -->
      <g transform="translate(40.290625 127.744881)scale(0.1 -0.1)">
       <use xlink:href="#DejaVuSans-67"/>
       <use x="69.824219" xlink:href="#DejaVuSans-65"/>
       <use x="138.232422" xlink:href="#DejaVuSans-95"/>
       <use x="188.232422" xlink:href="#DejaVuSans-79"/>
       <use x="266.943359" xlink:href="#DejaVuSans-78"/>
       <use x="341.748047" xlink:href="#DejaVuSans-58"/>
       <use x="375.439453" xlink:href="#DejaVuSans-56"/>
      </g>
     </g>
    </g>
    <g id="ytick_50">
     <g id="line2d_59">
      <g>
       <use style="stroke:#000000;stroke-width:0.8;" x="91.198438" xlink:href="#m47137b46bc" y="110.125141"/>
      </g>
     </g>
     <g id="text_59">
      <!-- US_HI:8 -->
      <g transform="translate(45.329688 113.836078)scale(0.1 -0.1)">
       <use xlink:href="#DejaVuSans-85"/>
       <use x="73.193359" xlink:href="#DejaVuSans-83"/>
       <use x="136.669922" xlink:href="#DejaVuSans-95"/>
       <use x="186.669922" xlink:href="#DejaVuSans-72"/>
       <use x="261.865234" xlink:href="#DejaVuSans-73"/>
       <use x="291.357422" xlink:href="#DejaVuSans-58"/>
       <use x="325.048828" xlink:href="#DejaVuSans-56"/>
      </g>
     </g>
    </g>
    <g id="ytick_51">
     <g id="line2d_60">
      <g>
       <use style="stroke:#000000;stroke-width:0.8;" x="91.198438" xlink:href="#m47137b46bc" y="96.216338"/>
      </g>
     </g>
     <g id="text_60">
      <!-- MX:9 -->
      <g transform="translate(58.989063 100.015557)scale(0.1 -0.1)">
       <defs>
        <path d="M 10.984375 1.515625 
L 10.984375 10.5 
Q 14.703125 8.734375 18.5 7.8125 
Q 22.3125 6.890625 25.984375 6.890625 
Q 35.75 6.890625 40.890625 13.453125 
Q 46.046875 20.015625 46.78125 33.40625 
Q 43.953125 29.203125 39.59375 26.953125 
Q 35.25 24.703125 29.984375 24.703125 
Q 19.046875 24.703125 12.671875 31.3125 
Q 6.296875 37.9375 6.296875 49.421875 
Q 6.296875 60.640625 12.9375 67.421875 
Q 19.578125 74.21875 30.609375 74.21875 
Q 43.265625 74.21875 49.921875 64.515625 
Q 56.59375 54.828125 56.59375 36.375 
Q 56.59375 19.140625 48.40625 8.859375 
Q 40.234375 -1.421875 26.421875 -1.421875 
Q 22.703125 -1.421875 18.890625 -0.6875 
Q 15.09375 0.046875 10.984375 1.515625 
z
M 30.609375 32.421875 
Q 37.25 32.421875 41.125 36.953125 
Q 45.015625 41.5 45.015625 49.421875 
Q 45.015625 57.28125 41.125 61.84375 
Q 37.25 66.40625 30.609375 66.40625 
Q 23.96875 66.40625 20.09375 61.84375 
Q 16.21875 57.28125 16.21875 49.421875 
Q 16.21875 41.5 20.09375 36.953125 
Q 23.96875 32.421875 30.609375 32.421875 
z
" id="DejaVuSans-57"/>
       </defs>
       <use xlink:href="#DejaVuSans-77"/>
       <use x="86.279297" xlink:href="#DejaVuSans-88"/>
       <use x="154.785156" xlink:href="#DejaVuSans-58"/>
       <use x="188.476562" xlink:href="#DejaVuSans-57"/>
      </g>
     </g>
    </g>
    <g id="ytick_52">
     <g id="line2d_61">
      <g>
       <use style="stroke:#000000;stroke-width:0.8;" x="91.198438" xlink:href="#m47137b46bc" y="82.307535"/>
      </g>
     </g>
     <g id="text_61">
      <!-- MX_DIF:9 -->
      <g transform="translate(38.3625 86.018473)scale(0.1 -0.1)">
       <use xlink:href="#DejaVuSans-77"/>
       <use x="86.279297" xlink:href="#DejaVuSans-88"/>
       <use x="154.785156" xlink:href="#DejaVuSans-95"/>
       <use x="204.785156" xlink:href="#DejaVuSans-68"/>
       <use x="281.787109" xlink:href="#DejaVuSans-73"/>
       <use x="311.279297" xlink:href="#DejaVuSans-70"/>
       <use x="361.048828" xlink:href="#DejaVuSans-58"/>
       <use x="394.740234" xlink:href="#DejaVuSans-57"/>
      </g>
     </g>
    </g>
    <g id="ytick_53">
     <g id="line2d_62">
      <g>
       <use style="stroke:#000000;stroke-width:0.8;" x="91.198438" xlink:href="#m47137b46bc" y="68.398732"/>
      </g>
     </g>
     <g id="text_62">
      <!-- CA:14 -->
      <g transform="translate(54.45625 72.197951)scale(0.1 -0.1)">
       <use xlink:href="#DejaVuSans-67"/>
       <use x="69.824219" xlink:href="#DejaVuSans-65"/>
       <use x="136.482422" xlink:href="#DejaVuSans-58"/>
       <use x="170.173828" xlink:href="#DejaVuSans-49"/>
       <use x="233.796875" xlink:href="#DejaVuSans-52"/>
      </g>
     </g>
    </g>
    <g id="ytick_54">
     <g id="line2d_63">
      <g>
       <use style="stroke:#000000;stroke-width:0.8;" x="91.198438" xlink:href="#m47137b46bc" y="54.48993"/>
      </g>
     </g>
     <g id="text_63">
      <!-- JP:14 -->
      <g transform="translate(59.125 58.289148)scale(0.1 -0.1)">
       <use xlink:href="#DejaVuSans-74"/>
       <use x="29.492188" xlink:href="#DejaVuSans-80"/>
       <use x="89.794922" xlink:href="#DejaVuSans-58"/>
       <use x="123.486328" xlink:href="#DejaVuSans-49"/>
       <use x="187.109375" xlink:href="#DejaVuSans-52"/>
      </g>
     </g>
    </g>
    <g id="ytick_55">
     <g id="line2d_64">
      <g>
       <use style="stroke:#000000;stroke-width:0.8;" x="91.198438" xlink:href="#m47137b46bc" y="40.581127"/>
      </g>
     </g>
     <g id="text_64">
      <!-- SG:14 -->
      <g transform="translate(54.007813 44.380346)scale(0.1 -0.1)">
       <use xlink:href="#DejaVuSans-83"/>
       <use x="63.476562" xlink:href="#DejaVuSans-71"/>
       <use x="140.966797" xlink:href="#DejaVuSans-58"/>
       <use x="174.658203" xlink:href="#DejaVuSans-49"/>
       <use x="238.28125" xlink:href="#DejaVuSans-52"/>
      </g>
     </g>
    </g>
    <g id="ytick_56">
     <g id="line2d_65">
      <g>
       <use style="stroke:#000000;stroke-width:0.8;" x="91.198438" xlink:href="#m47137b46bc" y="26.672324"/>
      </g>
     </g>
     <g id="text_65">
      <!-- US:36 -->
      <g transform="translate(54.4375 30.471543)scale(0.1 -0.1)">
       <use xlink:href="#DejaVuSans-85"/>
       <use x="73.193359" xlink:href="#DejaVuSans-83"/>
       <use x="136.669922" xlink:href="#DejaVuSans-58"/>
       <use x="170.361328" xlink:href="#DejaVuSans-51"/>
       <use x="233.984375" xlink:href="#DejaVuSans-54"/>
      </g>
     </g>
    </g>
    <g id="ytick_57">
     <g id="line2d_66">
      <g>
       <use style="stroke:#000000;stroke-width:0.8;" x="91.198438" xlink:href="#m47137b46bc" y="12.763521"/>
      </g>
     </g>
     <g id="text_66">
      <!-- US_CA:41 -->
      <g transform="translate(35.789063 16.474459)scale(0.1 -0.1)">
       <use xlink:href="#DejaVuSans-85"/>
       <use x="73.193359" xlink:href="#DejaVuSans-83"/>
       <use x="136.669922" xlink:href="#DejaVuSans-95"/>
       <use x="186.669922" xlink:href="#DejaVuSans-67"/>
       <use x="256.494141" xlink:href="#DejaVuSans-65"/>
       <use x="323.152344" xlink:href="#DejaVuSans-58"/>
       <use x="356.84375" xlink:href="#DejaVuSans-52"/>
       <use x="420.466797" xlink:href="#DejaVuSans-49"/>
      </g>
     </g>
    </g>
   </g>
   <g id="patch_60">
    <path d="M 91.198438 797.22 
L 91.198438 7.2 
" style="fill:none;stroke:#000000;stroke-linecap:square;stroke-linejoin:miter;stroke-width:0.8;"/>
   </g>
   <g id="patch_61">
    <path d="M 537.598438 797.22 
L 537.598438 7.2 
" style="fill:none;stroke:#000000;stroke-linecap:square;stroke-linejoin:miter;stroke-width:0.8;"/>
   </g>
   <g id="patch_62">
    <path d="M 91.198438 797.22 
L 537.598438 797.22 
" style="fill:none;stroke:#000000;stroke-linecap:square;stroke-linejoin:miter;stroke-width:0.8;"/>
   </g>
   <g id="patch_63">
    <path d="M 91.198438 7.2 
L 537.598438 7.2 
" style="fill:none;stroke:#000000;stroke-linecap:square;stroke-linejoin:miter;stroke-width:0.8;"/>
   </g>
  </g>
 </g>
 <defs>
  <clipPath id="p843119bd5b">
   <rect height="790.02" width="446.4" x="91.198438" y="7.2"/>
  </clipPath>
 </defs>
</svg>
